<svg width="67" height="33" viewBox="0 0 67 33" fill="none" xmlns="http://www.w3.org/2000/svg">
<path d="M11.8301 14.4071L15.9456 16.8657V20.037H0.570123V10.5944H15.9456C15.91 10.6835 15.8922 10.826 15.8744 11.0042C15.8387 11.1823 15.8209 11.3961 15.7853 11.6099C15.7496 11.8415 15.6962 12.0731 15.6606 12.3048C15.6249 12.5364 15.5715 12.7323 15.518 12.9105H4.66788V17.7031H11.8301V14.4071ZM17.0816 20.037V10.5944H31.5841V20.037H17.0816ZM27.5041 12.9105H21.1793V17.7031H27.5041V12.9105ZM32.7231 20.037V10.5944H47.2256V20.037H32.7231ZM43.1456 12.9105H36.8208V17.7031H43.1456V12.9105ZM66.0205 22.4957L52.4445 13.4806V17.7387H57.7359L55.2238 20.037H48.3645V10.5944H53.7451L61.9406 16.0818V10.5944H66.0205V22.4957Z" fill="#399BAA"/>
<path d="M2.00335 6.71265L2.23298 2.83265H0.253388V1.80326H6.74646V2.83265H4.05421V5.0102H6.02588L5.76458 5.20816C5.62205 5.28735 5.45576 5.38237 5.26572 5.48531C5.07568 5.59616 4.88564 5.6991 4.67976 5.80996C4.47388 5.92082 4.27592 6.03167 4.07796 6.14253C3.88 6.25339 3.7058 6.34841 3.54743 6.42759C3.38906 6.51469 3.26237 6.58596 3.16735 6.63347C3.06441 6.6889 3.00898 6.71265 3.00898 6.71265H2.00335ZM7.25156 6V1.80326H9.06487V3.3711H12.0897V1.80326H13.903V6H12.0897V4.40841H9.06487V4.97853H10.8227L9.70626 6H7.25156ZM14.4121 6V1.80326H21.2774C21.2615 1.84285 21.2536 1.9062 21.2457 1.98538C21.2298 2.06457 21.2219 2.15959 21.2061 2.25461C21.1903 2.35755 21.1665 2.46049 21.1507 2.56343C21.1348 2.66636 21.1111 2.75347 21.0873 2.83265H16.2333V3.3711H20.8735V4.40841H16.2333V4.96269H21.214C21.1586 5.02604 21.0636 5.12106 20.921 5.23192C20.7785 5.35069 20.636 5.46947 20.4855 5.58033C20.3351 5.69118 20.1925 5.79412 20.0658 5.87331C19.9391 5.96041 19.852 6 19.8204 6H14.4121Z" fill="#5D7ACE"/>
<path d="M20.4243 32.963V25.9351H31.0722C31.0457 26.0014 31.0324 26.1075 31.0192 26.2401C30.9927 26.3727 30.9794 26.5318 30.9529 26.6909C30.9264 26.8633 30.8866 27.0357 30.8601 27.208C30.8335 27.3804 30.7938 27.5263 30.754 27.6589H23.4742V31.2259H30.9661C30.8733 31.332 30.7142 31.4911 30.4755 31.6767C30.2368 31.8756 29.9981 32.0745 29.7462 32.2602C29.4943 32.4458 29.2556 32.6182 29.0434 32.7508C28.8313 32.8967 28.6854 32.963 28.6324 32.963H20.4243ZM31.7939 25.9351H42.5478V32.963H39.498V30.4833H34.8437V32.963H31.7939V25.9351ZM39.498 27.6589H34.8437V28.7462H39.498V27.6589ZM47.2684 32.963L43.065 25.9351H45.9955L48.5945 30.3905L51.0343 25.9351H53.9781L49.8542 32.963H47.2684ZM54.4941 32.963V25.9351H65.9906C65.9641 26.0014 65.9509 26.1075 65.9376 26.2401C65.9111 26.3727 65.8978 26.5318 65.8713 26.6909C65.8448 26.8633 65.805 27.0357 65.7785 27.208C65.7519 27.3804 65.7122 27.5263 65.6724 27.6589H57.5439V28.5606H65.3144V30.2977H57.5439V31.2259H65.8846C65.7917 31.332 65.6326 31.4911 65.3939 31.6767C65.1552 31.8756 64.9166 32.0745 64.6646 32.2602C64.4127 32.4458 64.174 32.6182 63.9618 32.7508C63.7497 32.8967 63.6038 32.963 63.5508 32.963H54.4941Z" fill="#5D7ACE"/>
</svg>
